<mxfile host="app.diagrams.net" modified="2023-06-26T15:57:26.194Z" agent="Mozilla/5.0 (Windows NT 10.0; Win64; x64) AppleWebKit/537.36 (KHTML, like Gecko) Chrome/114.0.0.0 Safari/537.36 Edg/114.0.1823.58" etag="p8J6IcyvUg0PfXxCNwy8" version="21.5.0" type="github">
  <diagram id="C5RBs43oDa-KdzZeNtuy" name="Page-1">
    <mxGraphModel dx="1684" dy="640" grid="1" gridSize="10" guides="1" tooltips="1" connect="1" arrows="1" fold="1" page="1" pageScale="1" pageWidth="2339" pageHeight="3300" math="0" shadow="0">
      <root>
        <mxCell id="WIyWlLk6GJQsqaUBKTNV-0" />
        <mxCell id="WIyWlLk6GJQsqaUBKTNV-1" parent="WIyWlLk6GJQsqaUBKTNV-0" />
        <mxCell id="j6GHUPzk0c5l7ep0Twxg-1" style="edgeStyle=orthogonalEdgeStyle;rounded=0;orthogonalLoop=1;jettySize=auto;html=1;" parent="WIyWlLk6GJQsqaUBKTNV-1" source="j6GHUPzk0c5l7ep0Twxg-0" edge="1">
          <mxGeometry relative="1" as="geometry">
            <mxPoint x="770" y="1130" as="targetPoint" />
          </mxGeometry>
        </mxCell>
        <mxCell id="j6GHUPzk0c5l7ep0Twxg-0" value="START" style="rounded=1;whiteSpace=wrap;html=1;fillColor=#fff2cc;strokeColor=#d6b656;" parent="WIyWlLk6GJQsqaUBKTNV-1" vertex="1">
          <mxGeometry x="710" y="1000" width="120" height="60" as="geometry" />
        </mxCell>
        <mxCell id="j6GHUPzk0c5l7ep0Twxg-3" style="edgeStyle=orthogonalEdgeStyle;rounded=0;orthogonalLoop=1;jettySize=auto;html=1;" parent="WIyWlLk6GJQsqaUBKTNV-1" source="j6GHUPzk0c5l7ep0Twxg-2" edge="1">
          <mxGeometry relative="1" as="geometry">
            <mxPoint x="770" y="1260" as="targetPoint" />
          </mxGeometry>
        </mxCell>
        <mxCell id="j6GHUPzk0c5l7ep0Twxg-2" value="input num1" style="rounded=0;whiteSpace=wrap;html=1;fillColor=#dae8fc;strokeColor=#6c8ebf;" parent="WIyWlLk6GJQsqaUBKTNV-1" vertex="1">
          <mxGeometry x="710" y="1130" width="120" height="60" as="geometry" />
        </mxCell>
        <mxCell id="j6GHUPzk0c5l7ep0Twxg-5" style="edgeStyle=orthogonalEdgeStyle;rounded=0;orthogonalLoop=1;jettySize=auto;html=1;" parent="WIyWlLk6GJQsqaUBKTNV-1" source="j6GHUPzk0c5l7ep0Twxg-4" edge="1">
          <mxGeometry relative="1" as="geometry">
            <mxPoint x="770" y="1390" as="targetPoint" />
          </mxGeometry>
        </mxCell>
        <mxCell id="j6GHUPzk0c5l7ep0Twxg-4" value="input num2" style="rounded=0;whiteSpace=wrap;html=1;fillColor=#dae8fc;strokeColor=#6c8ebf;" parent="WIyWlLk6GJQsqaUBKTNV-1" vertex="1">
          <mxGeometry x="710" y="1260" width="120" height="60" as="geometry" />
        </mxCell>
        <mxCell id="j6GHUPzk0c5l7ep0Twxg-7" style="edgeStyle=orthogonalEdgeStyle;rounded=0;orthogonalLoop=1;jettySize=auto;html=1;" parent="WIyWlLk6GJQsqaUBKTNV-1" source="j6GHUPzk0c5l7ep0Twxg-6" edge="1">
          <mxGeometry relative="1" as="geometry">
            <mxPoint x="770" y="1520" as="targetPoint" />
          </mxGeometry>
        </mxCell>
        <mxCell id="j6GHUPzk0c5l7ep0Twxg-6" value="Store answer as sum=(num1*num1) +(num2*num2)" style="rounded=0;whiteSpace=wrap;html=1;fillColor=#dae8fc;strokeColor=#6c8ebf;" parent="WIyWlLk6GJQsqaUBKTNV-1" vertex="1">
          <mxGeometry x="710" y="1390" width="120" height="60" as="geometry" />
        </mxCell>
        <mxCell id="j6GHUPzk0c5l7ep0Twxg-11" value="" style="edgeStyle=orthogonalEdgeStyle;rounded=0;orthogonalLoop=1;jettySize=auto;html=1;" parent="WIyWlLk6GJQsqaUBKTNV-1" source="j6GHUPzk0c5l7ep0Twxg-8" target="j6GHUPzk0c5l7ep0Twxg-9" edge="1">
          <mxGeometry relative="1" as="geometry" />
        </mxCell>
        <mxCell id="j6GHUPzk0c5l7ep0Twxg-8" value="Output sum" style="rounded=0;whiteSpace=wrap;html=1;fillColor=#dae8fc;strokeColor=#6c8ebf;" parent="WIyWlLk6GJQsqaUBKTNV-1" vertex="1">
          <mxGeometry x="710" y="1520" width="120" height="60" as="geometry" />
        </mxCell>
        <mxCell id="j6GHUPzk0c5l7ep0Twxg-9" value="END" style="rounded=1;whiteSpace=wrap;html=1;fillColor=#fff2cc;strokeColor=#d6b656;" parent="WIyWlLk6GJQsqaUBKTNV-1" vertex="1">
          <mxGeometry x="710" y="1630" width="120" height="60" as="geometry" />
        </mxCell>
      </root>
    </mxGraphModel>
  </diagram>
</mxfile>
